<?xml version="1.0" encoding="utf-8"?>
<!-- Generator: Adobe Illustrator 27.5.0, SVG Export Plug-In . SVG Version: 6.00 Build 0)  -->
<svg version="1.1" xmlns="http://www.w3.org/2000/svg" xmlns:xlink="http://www.w3.org/1999/xlink" x="0px" y="0px"
	 viewBox="0 0 750 500" style="enable-background:new 0 0 750 500;" xml:space="preserve">
<g id="BACKGROUND">
	<rect style="fill:#FCF2CD;" width="750" height="500"/>
</g>
<g id="OBJECTS">
	<g>
		<path style="fill:#A1DBC9;" d="M185.423,102.137c13.397,31.153,44.775,47.585,44.775,47.585s9.658-34.078-3.74-65.232
			c-13.397-31.153-44.775-47.585-44.775-47.585S172.027,70.984,185.423,102.137z"/>
		
			<rect x="203.41" y="40.811" transform="matrix(0.9187 -0.3951 0.3951 0.9187 -18.4113 87.7613)" style="fill:#FFFFFF;" width="1" height="95.558"/>
		
			<rect x="190.38" y="57.651" transform="matrix(0.5314 -0.8471 0.8471 0.5314 41.9258 192.0985)" style="fill:#FFFFFF;" width="8.458" height="0.999"/>
		
			<rect x="201.379" y="84.561" transform="matrix(0.5316 -0.847 0.847 0.5316 26.8504 218.6722)" style="fill:#FFFFFF;" width="19.492" height="1"/>
		
			<rect x="190.078" y="64.961" transform="matrix(0.1965 -0.9805 0.9805 0.1965 82.7667 244.5283)" style="fill:#FFFFFF;" width="1" height="13.609"/>
		
			<rect x="202.338" y="97.24" transform="matrix(0.1965 -0.9805 0.9805 0.1965 57.5545 285.2779)" style="fill:#FFFFFF;" width="1" height="20.565"/>
	</g>
	<g>
		<path style="fill:#682E2B;" d="M216.755,244.833l-3.683,0.159c-2.441,0.105-60.061,1.958-84.294-53.159L115.92,162.59l3.943-4.716
			c5.89-7.042,9.551-15.597,10.586-24.741l0.641-5.66l57.375-25.227l4.604,3.354c7.438,5.418,16.217,8.504,25.388,8.924l6.141,0.282
			l12.857,29.243c19.983,45.449-3.049,84.143-18.018,98.254L216.755,244.833z"/>
		<path style="fill:#E89C9C;" d="M212.255,126.802c-7.949-1.12-15.473-3.793-22.361-7.945l-3.108-1.874l-3.323,1.461l-37.054,16.292
			l-3.323,1.461l-0.721,3.557c-1.597,7.883-4.713,15.234-9.261,21.849l-2.21,3.214l1.57,3.57l8.042,18.291
			c7.448,16.94,19.456,29.497,35.691,37.323c13.071,6.301,25.567,7.793,31.852,8.122l3.422,0.179l2.24-2.593
			c4.066-4.705,11.514-14.664,15.714-28.499c5.194-17.112,3.95-34.608-3.698-52.003l-8.042-18.291l-1.57-3.57L212.255,126.802z"/>
		<path style="fill:#FFFFFF;" d="M210.228,229.495l-3.451-0.181c-5.926-0.309-17.711-1.716-30.044-7.66
			c-15.326-7.388-26.661-19.241-33.691-35.23l-9.121-20.743l2.229-3.242c4.225-6.143,7.119-12.971,8.602-20.293l0.728-3.588
			l41.43-18.217l3.135,1.892c6.397,3.855,13.385,6.339,20.769,7.379l3.895,0.549l9.12,20.743c7.218,16.415,8.391,32.93,3.487,49.085
			c-3.962,13.055-10.991,22.452-14.827,26.892L210.228,229.495z M135.061,165.789l8.896,20.233
			c6.932,15.765,18.105,27.449,33.21,34.732c12.175,5.868,23.81,7.257,29.662,7.563l2.962,0.155l1.94-2.245
			c3.785-4.379,10.718-13.649,14.627-26.528c4.833-15.92,3.674-32.201-3.445-48.392l-8.896-20.233l-3.343-0.471
			c-7.518-1.06-14.633-3.587-21.146-7.514l-2.691-1.622l-40.481,17.799l-0.624,3.08c-1.51,7.454-4.457,14.405-8.758,20.66
			L135.061,165.789z"/>
		
			<rect x="195.523" y="135.324" transform="matrix(0.2834 -0.959 0.959 0.2834 -14.8733 304.0588)" style="fill:#FFFFFF;" width="1" height="53.315"/>
		
			<rect x="155.067" y="144.849" transform="matrix(0.2834 -0.959 0.959 0.2834 -32.393 256.701)" style="fill:#FFFFFF;" width="1" height="10.352"/>
		
			<rect x="206.803" y="198.38" transform="matrix(0.2835 -0.959 0.959 0.2835 -47.9015 345.5814)" style="fill:#FFFFFF;" width="1" height="12.93"/>
		
			<rect x="178.334" y="186.337" transform="matrix(0.2834 -0.959 0.959 0.2834 -60.229 312.2568)" style="fill:#FFFFFF;" width="1" height="20.187"/>
		
			<rect x="216.446" y="172.023" transform="matrix(0.2827 -0.9592 0.9592 0.2827 -17.697 337.7122)" style="fill:#FFFFFF;" width="1" height="17.33"/>
		
			<rect x="167.644" y="139.248" transform="matrix(0.2827 -0.9592 0.9592 0.2827 -38.909 280.5865)" style="fill:#FFFFFF;" width="1" height="54.118"/>
	</g>
	<g>
		
			<ellipse transform="matrix(0.3225 -0.9466 0.9466 0.3225 -123.7384 325.4077)" style="fill:#FEC200;" cx="165.447" cy="249.142" rx="53.831" ry="53.831"/>
		<path style="fill:#682E2B;" d="M165.479,295.344c-19.499,0.002-37.667-12.45-43.986-31.978
			c-7.842-24.236,5.495-50.335,29.73-58.178c11.741-3.801,24.257-2.799,35.246,2.816c10.988,5.615,19.132,15.174,22.931,26.914
			c3.799,11.74,2.799,24.258-2.816,35.246c-5.615,10.987-15.173,19.132-26.914,22.931
			C174.962,294.619,170.18,295.344,165.479,295.344z M165.495,203.922c-4.68,0-9.382,0.735-13.964,2.218
			c-23.711,7.673-36.759,33.207-29.087,56.918c7.673,23.712,33.209,36.761,56.918,29.087c11.486-3.717,20.837-11.685,26.331-22.435
			c5.494-10.751,6.472-22.997,2.755-34.482l0,0c-3.717-11.487-11.685-20.839-22.435-26.332
			C179.551,205.593,172.548,203.922,165.495,203.922z"/>
		<g>
			<path style="fill:#682E2B;" d="M176.558,259.901c-0.434-1.34-1.029-2.395-1.785-3.165c-0.757-0.769-1.764-1.341-3.023-1.715
				c-1.259-0.374-2.861-0.602-4.808-0.686c-3.677-0.263-6.986-0.701-9.925-1.313c-2.94-0.612-5.44-1.749-7.501-3.413
				c-2.06-1.664-3.628-4.159-4.705-7.485c-1.004-3.102-1.131-6.036-0.38-8.802c0.75-2.766,2.24-5.195,4.469-7.287
				c2.229-2.092,5.094-3.705,8.593-4.837c3.524-1.14,6.84-1.445,9.945-0.915c3.106,0.531,5.823,1.873,8.151,4.025
				c2.328,2.154,4.087,5.067,5.276,8.74l-11.616,3.759c-0.932-2.879-2.196-4.794-3.792-5.744c-1.597-0.95-3.313-1.129-5.15-0.535
				c-1.34,0.434-2.352,1.057-3.036,1.867c-0.684,0.811-1.084,1.735-1.2,2.773c-0.116,1.039,0.011,2.129,0.38,3.27
				c0.37,1.142,0.91,2.071,1.621,2.787c0.711,0.716,1.711,1.263,2.999,1.641c1.288,0.379,2.958,0.647,5.011,0.805
				c3.66,0.297,6.956,0.779,9.887,1.448c2.931,0.67,5.434,1.84,7.512,3.513c2.076,1.673,3.645,4.147,4.705,7.423
				c1.052,3.251,1.193,6.25,0.422,8.993c-0.771,2.746-2.31,5.149-4.618,7.212c-2.308,2.062-5.261,3.676-8.86,4.841
				c-2.308,0.747-4.705,1.179-7.189,1.298c-2.485,0.119-4.882-0.216-7.194-1.004c-2.311-0.787-4.399-2.155-6.262-4.102
				c-1.864-1.947-3.346-4.62-4.447-8.021l11.653-3.771c0.546,1.688,1.213,3.029,2,4.021c0.787,0.993,1.649,1.708,2.586,2.145
				c0.937,0.438,1.911,0.651,2.921,0.638c1.011-0.011,1.988-0.17,2.931-0.475c1.439-0.466,2.543-1.103,3.309-1.914
				c0.766-0.81,1.234-1.736,1.404-2.778C177.015,262.098,176.919,261.017,176.558,259.901z M180.583,283.399l-6.031,1.952
				l-3.265-10.09l6.031-1.952L180.583,283.399z M161.992,223.279l-6.068,1.964l-3.566-11.02l6.068-1.964L161.992,223.279z"/>
		</g>
	</g>
	<g>
		<circle style="fill:#FEC200;" cx="629.15" cy="323.344" r="53.831"/>
		<path style="fill:#682E2B;" d="M590.085,348.012c-10.401-16.493-9.557-38.502,3.591-54.263
			c16.319-19.56,45.509-22.197,65.069-5.879c9.477,7.905,15.305,19.027,16.415,31.316c1.111,12.29-2.632,24.277-10.537,33.752
			c-7.905,9.475-19.027,15.306-31.317,16.416c-12.289,1.11-24.276-2.632-33.751-10.537
			C595.755,355.647,592.592,351.989,590.085,348.012z M667.428,299.267c-2.496-3.959-5.626-7.544-9.323-10.629
			c-19.136-15.965-47.695-13.384-63.66,5.752c-15.966,19.137-13.385,47.697,5.752,63.661c9.27,7.734,20.997,11.395,33.021,10.308
			c12.024-1.087,22.905-6.79,30.638-16.06l0,0c7.735-9.271,11.396-20.998,10.309-33.021
			C673.511,312.048,671.19,305.233,667.428,299.267z"/>
		<g>
			<path style="fill:#682E2B;" d="M625.975,338.481c0.902-1.081,1.477-2.148,1.726-3.198c0.247-1.05,0.193-2.208-0.161-3.472
				c-0.355-1.264-1.016-2.742-1.984-4.433c-1.739-3.251-3.133-6.283-4.183-9.096c-1.051-2.813-1.422-5.535-1.113-8.165
				c0.309-2.63,1.583-5.287,3.823-7.972c2.089-2.504,4.503-4.176,7.243-5.016c2.74-0.841,5.589-0.876,8.548-0.106
				c2.958,0.77,5.851,2.333,8.675,4.689c2.844,2.373,4.87,5.015,6.078,7.925c1.207,2.911,1.521,5.925,0.942,9.042
				c-0.581,3.118-2.106,6.16-4.58,9.124l-9.375-7.821c1.938-2.323,2.884-4.414,2.837-6.271c-0.048-1.857-0.812-3.405-2.294-4.642
				c-1.081-0.902-2.148-1.425-3.198-1.572c-1.05-0.146-2.046,0.009-2.986,0.464c-0.941,0.456-1.796,1.145-2.564,2.065
				c-0.769,0.922-1.266,1.874-1.493,2.858c-0.227,0.984-0.156,2.121,0.211,3.412c0.366,1.292,1.03,2.847,1.992,4.668
				c1.701,3.254,3.051,6.299,4.048,9.136c0.997,2.836,1.342,5.578,1.035,8.227c-0.308,2.649-1.564,5.295-3.77,7.94
				c-2.189,2.624-4.651,4.342-7.383,5.153c-2.734,0.812-5.587,0.792-8.563-0.059c-2.976-0.853-5.916-2.49-8.82-4.913
				c-1.863-1.554-3.507-3.351-4.932-5.389c-1.426-2.038-2.421-4.245-2.987-6.62c-0.566-2.375-0.523-4.87,0.13-7.485
				c0.653-2.615,2.124-5.295,4.413-8.039l9.405,7.846c-1.137,1.362-1.915,2.641-2.334,3.837c-0.42,1.196-0.565,2.306-0.435,3.332
				c0.129,1.026,0.468,1.964,1.018,2.811c0.548,0.849,1.204,1.591,1.965,2.226c1.162,0.969,2.289,1.563,3.384,1.778
				c1.094,0.216,2.126,0.118,3.099-0.294C624.36,340.039,625.223,339.382,625.975,338.481z M608.245,354.418l-4.868-4.061
				l6.793-8.143l4.868,4.061L608.245,354.418z M649.185,306.628l-4.898-4.086l7.42-8.894l4.898,4.086L649.185,306.628z"/>
		</g>
	</g>
	<g>
		<path style="fill:#A1DBC9;" d="M95.72,397.087c31.878,14.464,67.246,5.195,67.246,5.195s-16.316-32.721-48.194-47.185
			c-31.878-14.464-67.247-5.195-67.247-5.195S63.842,382.622,95.72,397.087z"/>
		
			<rect x="99.913" y="324.577" transform="matrix(0.4132 -0.9106 0.9106 0.4132 -281.5646 310.8436)" style="fill:#FFFFFF;" width="0.999" height="98.642"/>
		
			<rect x="71.657" y="352.766" transform="matrix(0.9842 -0.177 0.177 0.9842 -62.0759 18.4118)" style="fill:#FFFFFF;" width="1" height="8.731"/>
		
			<rect x="102.965" y="356.13" transform="matrix(0.9842 -0.177 0.177 0.9842 -63.1852 24.0968)" style="fill:#FFFFFF;" width="1" height="20.12"/>
		
			<rect x="71.52" y="369.824" transform="matrix(0.8574 -0.5146 0.5146 0.8574 -179.3752 93.2196)" style="fill:#FFFFFF;" width="14.047" height="1"/>
		
			<rect x="102.139" y="388.592" transform="matrix(0.8574 -0.5147 0.5147 0.8574 -184.1795 113.5259)" style="fill:#FFFFFF;" width="21.229" height="1"/>
	</g>
	<g>
		<path style="fill:#A1DBC9;" d="M96.367,339.662c37.925,48.187,94.413,58.969,94.413,58.969s-5.001-67.343-42.926-115.53
			S53.44,224.133,53.44,224.133S58.441,291.476,96.367,339.662z"/>
		
			<rect x="115.859" y="217.679" transform="matrix(0.7858 -0.6185 0.6185 0.7858 -163.1386 137.0958)" style="fill:#FFFFFF;" width="1.001" height="172.793"/>
		
			<rect x="77.058" y="254.212" transform="matrix(0.1679 -0.9858 0.9858 0.1679 -180.3775 295.7254)" style="fill:#FFFFFF;" width="15.864" height="1"/>
		
			<rect x="106.888" y="292.86" transform="matrix(0.1679 -0.9858 0.9858 0.1679 -185.0454 367.491)" style="fill:#FFFFFF;" width="36.559" height="1"/>
		
			<rect x="75.833" y="281.222" transform="matrix(0.989 -0.1476 0.1476 0.989 -40.6352 15.8882)" style="fill:#FFFFFF;" width="21.791" height="0.999"/>
		
			<rect x="109.116" y="338.404" transform="matrix(0.9891 -0.1475 0.1475 0.9891 -48.6237 22.235)" style="fill:#FFFFFF;" width="32.929" height="0.999"/>
	</g>
	<g>
		
			<rect x="496.178" y="98.159" transform="matrix(0.9697 0.2442 -0.2442 0.9697 56.3984 -131.3742)" style="fill:#E89C9C;" width="123.503" height="127.129"/>
		
			<rect x="506.06" y="99.713" transform="matrix(0.9697 0.2442 -0.2442 0.9697 44.6298 -135.9404)" style="fill:#E89C9C;" width="128.795" height="24.549"/>
		
			<rect x="548.713" y="98.159" transform="matrix(0.9697 0.2442 -0.2442 0.9697 56.399 -131.3751)" style="fill:#682E2B;" width="18.432" height="127.129"/>
		
			<rect x="560.846" y="99.713" transform="matrix(0.9697 0.2442 -0.2442 0.9697 44.6292 -135.939)" style="fill:#682E2B;" width="19.222" height="24.549"/>
		
			<rect x="566.959" y="62.138" transform="matrix(0.2442 -0.9697 0.9697 0.2442 308.7259 643.905)" style="fill:#FFFFFF;" width="1" height="123.503"/>
		<path style="fill:#682E2B;" d="M563.994,81.859c-17.117-26.914-38.291-3.349-31.145,7.998l14.388,3.624
			c0,0,8.231-11.284,21.632,5.449l6.27,1.579L563.994,81.859z"/>
		<path style="fill:#682E2B;" d="M590.42,88.515c27.824-15.594,35.309,15.188,23.64,21.797l-14.388-3.624
			c0,0-1.904-13.837-21.632-5.449l-6.27-1.579L590.42,88.515z"/>
		<path style="fill:#682E2B;" d="M581.552,102.124c-1.061,4.214-5.338,6.77-9.553,5.709c-4.214-1.062-6.77-5.338-5.709-9.553
			c1.062-4.214,5.338-6.77,9.553-5.709C580.057,93.633,582.613,97.91,581.552,102.124z"/>
	</g>
	<g>
		
			<rect x="453.445" y="221.416" transform="matrix(-0.4522 0.8919 -0.8919 -0.4522 1076.4608 -98.1039)" style="fill:#A1DBC9;" width="229.825" height="120.209"/>
		
			<ellipse transform="matrix(0.4522 -0.8919 0.8919 0.4522 60.2542 661.1451)" style="fill:#FFFFFF;" cx="568.357" cy="281.52" rx="28.717" ry="33.719"/>
		<path style="fill:#FFFFFF;" d="M532.785,339.925l8.126-16.028c1.328-2.619,4.528-3.666,7.147-2.338l0,0
			c2.619,1.328,3.666,4.527,2.338,7.147l-8.126,16.028c-1.328,2.619-4.527,3.666-7.147,2.338l0,0
			C532.504,345.744,531.457,342.544,532.785,339.925z"/>
		<path style="fill:#FFFFFF;" d="M586.319,234.335l8.126-16.028c1.328-2.619,4.527-3.666,7.147-2.338l0,0
			c2.619,1.328,3.666,4.527,2.338,7.147l-8.126,16.028c-1.328,2.619-4.528,3.666-7.147,2.338v0
			C586.038,240.154,584.991,236.954,586.319,234.335z"/>
		<path style="fill:#FFFFFF;" d="M550.217,390.226l-58.826-29.824l0.056-0.359c1.475-9.39-1.352-18.848-7.564-25.298l-0.246-0.256
			l0.161-0.317l77.214-152.296l0.352,0.048c8.878,1.193,18.175-2.111,24.878-8.85l0.256-0.258l58.826,29.824l-0.057,0.359
			c-1.475,9.391,1.352,18.848,7.564,25.298l0.246,0.256l-0.161,0.317l-77.213,152.296l-0.352-0.048
			c-8.876-1.2-18.175,2.111-24.878,8.85L550.217,390.226z M492.489,359.838l57.533,29.169c6.813-6.699,16.158-10.03,25.109-8.925
			l76.734-151.349c-6.178-6.584-9.019-16.075-7.641-25.53l-57.534-29.169c-6.812,6.7-16.151,10.027-25.108,8.925l-76.734,151.349
			C491.027,340.893,493.867,350.384,492.489,359.838z"/>
	</g>
	<g>
		<rect x="220.845" y="48.849" style="fill:#FFFFFF;" width="308.551" height="413.512"/>
		<g>
			<g>
				
					<ellipse transform="matrix(0.1602 -0.9871 0.9871 0.1602 76.5583 572.9667)" style="fill:#E89C9C;" cx="375" cy="241.492" rx="56.815" ry="56.815"/>
				<path style="fill:#FFFFFF;" d="M375,292.186c-27.954,0-50.695-22.742-50.695-50.695s22.742-50.694,50.695-50.694
					c27.953,0,50.695,22.741,50.695,50.694S402.953,292.186,375,292.186z M375,191.797c-27.402,0-49.695,22.293-49.695,49.694
					c0,27.402,22.293,49.695,49.695,49.695c27.402,0,49.695-22.293,49.695-49.695C424.695,214.09,402.402,191.797,375,191.797z"/>
				<g>
					<rect x="364.971" y="206.417" style="fill:#FFFFFF;" width="20.058" height="70.148"/>
					
						<rect x="364.971" y="206.417" transform="matrix(-1.836970e-16 1 -1 -1.836970e-16 616.4916 -133.5085)" style="fill:#FFFFFF;" width="20.058" height="70.148"/>
				</g>
			</g>
			<path style="fill:#F9E8E8;" d="M482.986,346.296H267.014c-2.586,0-4.683-2.096-4.683-4.683l0,0c0-2.586,2.096-4.683,4.683-4.683
				h215.972c2.586,0,4.682,2.096,4.682,4.683l0,0C487.668,344.199,485.572,346.296,482.986,346.296z"/>
			<path style="fill:#F9E8E8;" d="M415.705,146.78h-81.41c-2.586,0-4.683-2.097-4.683-4.683l0,0c0-2.586,2.096-4.683,4.683-4.683
				h81.41c2.586,0,4.683,2.096,4.683,4.683l0,0C420.388,144.684,418.291,146.78,415.705,146.78z"/>
			<path style="fill:#F9E8E8;" d="M482.986,373.856H267.014c-2.586,0-4.683-2.097-4.683-4.683l0,0c0-2.586,2.096-4.683,4.683-4.683
				h215.972c2.586,0,4.682,2.096,4.682,4.683l0,0C487.668,371.759,485.572,373.856,482.986,373.856z"/>
			<path style="fill:#F9E8E8;" d="M482.986,173.634H267.014c-2.586,0-4.683-2.096-4.683-4.683l0,0c0-2.586,2.096-4.683,4.683-4.683
				h215.972c2.586,0,4.682,2.096,4.682,4.683l0,0C487.668,171.538,485.572,173.634,482.986,173.634z"/>
			<path style="fill:#F9E8E8;" d="M482.986,318.736H267.014c-2.586,0-4.683-2.096-4.683-4.683l0,0c0-2.586,2.096-4.683,4.683-4.683
				h215.972c2.586,0,4.682,2.096,4.682,4.683l0,0C487.668,316.64,485.572,318.736,482.986,318.736z"/>
			<path style="fill:#F9E8E8;" d="M482.986,401.415H267.014c-2.586,0-4.683-2.096-4.683-4.683l0,0c0-2.586,2.096-4.683,4.683-4.683
				h215.972c2.586,0,4.682,2.096,4.682,4.683l0,0C487.668,399.319,485.572,401.415,482.986,401.415z"/>
			<path style="fill:#F9E8E8;" d="M482.986,437.113H442c-2.586,0-4.683-2.096-4.683-4.683l0,0c0-2.586,2.097-4.683,4.683-4.683
				h40.986c2.586,0,4.682,2.096,4.682,4.683l0,0C487.668,435.017,485.572,437.113,482.986,437.113z"/>
		</g>
		<path style="fill:#F9E8E8;" d="M477.957,457.481H271.953v-0.5c0-25.352-20.626-45.978-45.978-45.978h-0.5V100.207h0.5
			c25.352,0,45.978-20.626,45.978-45.979v-0.5h206.004v0.5c0,25.353,20.626,45.979,45.978,45.979l0.831-0.014v310.823l-0.831-0.014
			c-25.353,0-45.978,20.626-45.978,45.978V457.481z M272.95,456.481H476.96c0.27-25.617,21.148-46.387,46.807-46.478V101.207
			c-25.658-0.092-46.537-20.861-46.807-46.479H272.95c-0.269,25.507-20.969,46.207-46.476,46.476v308.802
			C251.981,410.274,272.682,430.974,272.95,456.481z"/>
	</g>
	<g>
		<path style="fill:#A1DBC9;" d="M628.603,356.279c-33.261,10.537-53.285,40.984-53.285,40.984s33.903,13.364,67.164,2.828
			c33.261-10.537,53.285-40.984,53.285-40.984S661.864,345.743,628.603,356.279z"/>
		
			<rect x="591.428" y="376.088" transform="matrix(0.9533 -0.3021 0.3021 0.9533 -83.8362 211.1147)" style="fill:#FFFFFF;" width="98.315" height="1"/>
		
			<rect x="672.198" y="365.821" transform="matrix(0.6132 -0.7899 0.7899 0.6132 -32.2022 674.5809)" style="fill:#FFFFFF;" width="1.001" height="8.702"/>
		
			<rect x="642.963" y="374.307" transform="matrix(0.6132 -0.7899 0.7899 0.6132 -54.7021 656.9567)" style="fill:#FFFFFF;" width="1" height="20.054"/>
		
			<rect x="652.17" y="364.156" transform="matrix(0.2928 -0.9562 0.9562 0.2928 117.5148 888.1906)" style="fill:#FFFFFF;" width="14.001" height="1"/>
		
			<rect x="610.734" y="373.058" transform="matrix(0.2927 -0.9562 0.9562 0.2927 82.2346 858.2958)" style="fill:#FFFFFF;" width="21.158" height="1"/>
	</g>
	<g>
		<g>
			<g>
				<path style="fill:#A74602;" d="M529.396,248.553l53.146,46.721c8.25,7.313,13.544,17.388,14.887,28.331l8.843,72.041
					c0.726,5.918,3.115,11.509,6.888,16.126l24.321,29.758l-52.051,35.763l-22.004-32.137c-3.256-4.756-7.136-9.054-11.535-12.779
					l-24.121-20.425c-8.713-7.378-16.164-16.129-22.058-25.907l-45.091-74.805c-4.088-6.782-2.216-15.571,4.28-20.099v0
					c6.724-4.686,15.9-3.546,21.271,2.644l43.187,49.862L529.396,248.553z"/>
				<path style="fill:#FEC200;" d="M472.726,317.787c-0.39,0-0.783-0.034-1.175-0.104c-1.736-0.31-3.248-1.277-4.256-2.725
					l-2.962-4.251c-3.715-5.331-2.4-12.689,2.93-16.405h0.001c5.332-3.714,12.691-2.399,16.405,2.931l3.006,4.314
					c0.997,1.431,1.377,3.163,1.07,4.88c-0.307,1.716-1.263,3.21-2.694,4.206l-8.564,5.968
					C475.367,317.381,474.063,317.787,472.726,317.787z M467.835,295.122L467.835,295.122c-4.879,3.4-6.082,10.135-2.682,15.013
					l2.962,4.251c0.855,1.229,2.138,2.05,3.611,2.313c1.475,0.264,2.961-0.063,4.189-0.919l8.565-5.968
					c1.211-0.844,2.021-2.108,2.281-3.563c0.259-1.453-0.063-2.92-0.906-4.131l-3.006-4.313
					C479.449,292.926,472.713,291.722,467.835,295.122z"/>
				
					<rect x="485.711" y="331.679" transform="matrix(0.8262 -0.5634 0.5634 0.8262 -101.4745 335.4363)" style="fill:#FEC200;" width="14.391" height="1"/>
				
					<rect x="490.942" y="334.565" transform="matrix(0.8261 -0.5635 0.5635 0.8261 -102.6891 337.3205)" style="fill:#FEC200;" width="8.663" height="1"/>
				
					<rect x="486.606" y="328.224" transform="matrix(0.8261 -0.5635 0.5635 0.8261 -99.8703 333.7753)" style="fill:#FEC200;" width="8.662" height="1"/>
				<path style="fill:#FEC200;" d="M529.74,343.971l-0.761-0.648l10.115-11.856c5.695-6.677,6.202-16.391,1.232-23.624
					l-11.359-16.53l0.824-0.566l11.359,16.53c5.226,7.605,4.692,17.819-1.296,24.839L529.74,343.971z"/>
			</g>
			
				<rect x="545.33" y="405.024" transform="matrix(-0.8424 0.5389 -0.5389 -0.8424 1303.7573 460.1663)" style="fill:#FFFFFF;" width="78.49" height="31.493"/>
			<polygon style="fill:#682E2B;" points="693.982,500 629.377,410.8 556.745,457.269 578.228,500 			"/>
			<path style="fill:#F9E8E8;" d="M554.698,436.944c0,2.493,2.021,4.514,4.514,4.514c2.493,0,4.514-2.021,4.514-4.514
				c0-2.493-2.021-4.514-4.514-4.514C556.719,432.431,554.698,434.452,554.698,436.944z"/>
		</g>
		<g>
			<g>
				<path style="fill:#A74602;" d="M220.789,248.553l-53.146,46.721c-8.25,7.313-13.544,17.388-14.887,28.331l-8.843,72.041
					c-0.726,5.918-3.115,11.509-6.888,16.126l-24.321,29.758l52.051,35.763l22.004-32.137c3.257-4.756,7.136-9.054,11.535-12.779
					l24.121-20.425c8.713-7.378,16.164-16.129,22.058-25.907l45.092-74.805c4.088-6.782,2.216-15.571-4.28-20.099v0
					c-6.724-4.686-15.9-3.546-21.271,2.644l-43.187,49.862L220.789,248.553z"/>
				<path style="fill:#FEC200;" d="M277.46,317.787c-1.337,0-2.641-0.406-3.762-1.188l-8.563-5.968
					c-1.431-0.996-2.387-2.49-2.694-4.206c-0.307-1.717,0.074-3.449,1.07-4.88l3.006-4.314c3.714-5.331,11.074-6.646,16.405-2.931
					l0,0c2.583,1.8,4.31,4.497,4.863,7.596c0.554,3.099-0.132,6.228-1.932,8.81l-2.962,4.251c-1.008,1.447-2.52,2.415-4.256,2.725
					C278.243,317.753,277.85,317.787,277.46,317.787z M276.2,293.189c-3.411,0-6.769,1.61-8.863,4.615l-3.006,4.313
					c-0.844,1.211-1.165,2.678-0.906,4.131c0.26,1.454,1.07,2.719,2.281,3.563l8.564,5.968c1.228,0.856,2.716,1.183,4.189,0.919
					c1.473-0.263,2.756-1.084,3.612-2.313l2.962-4.251c1.647-2.362,2.275-5.226,1.768-8.062c-0.506-2.835-2.087-5.304-4.45-6.951
					C280.476,293.816,278.328,293.189,276.2,293.189z"/>
				
					<rect x="256.779" y="324.983" transform="matrix(0.5635 -0.8261 0.8261 0.5635 -162.1159 357.5375)" style="fill:#FEC200;" width="1" height="14.391"/>
				
					<rect x="254.413" y="330.733" transform="matrix(0.5635 -0.8261 0.8261 0.5635 -165.5339 356.8259)" style="fill:#FEC200;" width="1" height="8.663"/>
				
					<rect x="258.748" y="324.393" transform="matrix(0.5635 -0.8261 0.8261 0.5635 -158.4017 357.6732)" style="fill:#FEC200;" width="1" height="8.662"/>
				<path style="fill:#FEC200;" d="M220.445,343.971l-10.115-11.857c-5.989-7.02-6.521-17.233-1.296-24.839l11.359-16.53
					l0.824,0.566l-11.359,16.53c-4.97,7.233-4.463,16.947,1.232,23.624l10.115,11.856L220.445,343.971z"/>
			</g>
			
				<rect x="126.366" y="405.024" transform="matrix(0.8424 0.5389 -0.5389 0.8424 252.8723 -22.9188)" style="fill:#FFFFFF;" width="78.49" height="31.493"/>
			<polygon style="fill:#682E2B;" points="173.038,500 193.441,457.269 120.809,410.8 48.546,500 			"/>
			<path style="fill:#F9E8E8;" d="M195.487,436.944c0,2.493-2.021,4.514-4.514,4.514c-2.493,0-4.514-2.021-4.514-4.514
				c0-2.493,2.021-4.514,4.514-4.514C193.466,432.431,195.487,434.452,195.487,436.944z"/>
		</g>
	</g>
	<g>
		<path style="fill:#FEC200;" d="M426.583,370.976l25.983-125.404c1.728-8.341,9.891-13.701,18.231-11.973l57.278,11.868
			c8.341,1.728,13.701,9.891,11.973,18.231l-25.983,125.404c-1.728,8.341-9.891,13.701-18.231,11.973l-57.278-11.868
			C430.215,387.479,424.855,379.317,426.583,370.976z"/>
		<g>
			<g>
				<path style="fill:#FFFFFF;" d="M504.27,258.862l0.102-0.49c0.664-3.205,3.8-5.264,7.005-4.6l11.722,2.429
					c3.205,0.664,5.264,3.8,4.6,7.005l-0.102,0.49c-0.664,3.205-3.8,5.264-7.005,4.6l-11.722-2.429
					C505.666,265.203,503.606,262.067,504.27,258.862z"/>
				<path style="fill:#FFFFFF;" d="M498.005,289.1l0.102-0.49c0.664-3.205,3.8-5.264,7.005-4.6l11.722,2.429
					c3.205,0.664,5.264,3.8,4.6,7.005l-0.102,0.49c-0.664,3.205-3.8,5.264-7.005,4.6l-11.722-2.429
					C499.401,295.441,497.341,292.305,498.005,289.1z"/>
				<path style="fill:#FFFFFF;" d="M491.74,319.338l0.102-0.49c0.664-3.205,3.8-5.264,7.005-4.6l11.722,2.429
					c3.205,0.664,5.264,3.8,4.6,7.005l-0.102,0.49c-0.664,3.205-3.8,5.264-7.005,4.6l-11.722-2.429
					C493.135,325.679,491.076,322.543,491.74,319.338z"/>
				<path style="fill:#FFFFFF;" d="M485.475,349.576l0.102-0.49c0.664-3.205,3.8-5.264,7.005-4.6l11.722,2.429
					c3.205,0.664,5.264,3.8,4.6,7.005l-0.102,0.49c-0.664,3.205-3.8,5.264-7.005,4.6l-11.722-2.429
					C486.87,355.917,484.811,352.781,485.475,349.576z"/>
				<path style="fill:#FFFFFF;" d="M479.21,379.814l0.102-0.49c0.664-3.205,3.8-5.264,7.005-4.6l11.722,2.429
					c3.205,0.664,5.264,3.8,4.6,7.005l-0.102,0.49c-0.664,3.205-3.8,5.264-7.005,4.6l-11.722-2.429
					C480.605,386.155,478.546,383.019,479.21,379.814z"/>
			</g>
			<g>
				<path style="fill:#FFFFFF;" d="M463.993,250.517l0.102-0.49c0.664-3.205,3.8-5.264,7.005-4.6l11.722,2.429
					c3.205,0.664,5.264,3.8,4.6,7.005l-0.102,0.49c-0.664,3.205-3.8,5.264-7.005,4.6l-11.722-2.429
					C465.389,256.858,463.329,253.722,463.993,250.517z"/>
				<path style="fill:#FFFFFF;" d="M457.728,280.755l0.102-0.49c0.664-3.205,3.8-5.264,7.005-4.6l11.722,2.429
					c3.205,0.664,5.264,3.8,4.6,7.005l-0.102,0.49c-0.664,3.205-3.8,5.264-7.005,4.6l-11.722-2.429
					C459.124,287.096,457.064,283.96,457.728,280.755z"/>
				<path style="fill:#FFFFFF;" d="M451.463,310.993l0.102-0.49c0.664-3.205,3.8-5.264,7.005-4.6l11.722,2.429
					c3.205,0.664,5.264,3.8,4.6,7.005l-0.102,0.49c-0.664,3.205-3.8,5.264-7.005,4.6l-11.722-2.429
					C452.859,317.334,450.799,314.198,451.463,310.993z"/>
				<path style="fill:#FFFFFF;" d="M445.198,341.231l0.102-0.49c0.664-3.205,3.8-5.264,7.005-4.6l11.722,2.429
					c3.205,0.664,5.264,3.8,4.6,7.005l-0.102,0.49c-0.664,3.205-3.8,5.264-7.005,4.6l-11.722-2.429
					C446.594,347.572,444.534,344.436,445.198,341.231z"/>
				<path style="fill:#FFFFFF;" d="M438.933,371.469l0.102-0.49c0.664-3.205,3.8-5.264,7.005-4.6l11.722,2.429
					c3.205,0.664,5.264,3.8,4.6,7.005l-0.102,0.49c-0.664,3.205-3.8,5.264-7.005,4.6l-11.722-2.429
					C440.328,377.81,438.269,374.674,438.933,371.469z"/>
			</g>
		</g>
		<path style="fill:#FFFFFF;" d="M468.276,392.391l-0.979-0.203l0.811-3.917l0.979,0.203L468.276,392.391z M469.899,384.556
			l-0.979-0.203l0.812-3.917l0.979,0.203L469.899,384.556z M471.522,376.723l-0.979-0.203l0.811-3.916l0.979,0.203L471.522,376.723z
			 M473.145,368.889l-0.98-0.203l0.812-3.917l0.979,0.203L473.145,368.889z M474.768,361.056l-0.979-0.203l0.811-3.917l0.98,0.203
			L474.768,361.056z M476.391,353.223l-0.979-0.203l0.811-3.917l0.979,0.203L476.391,353.223z M478.014,345.388l-0.98-0.203
			l0.812-3.917l0.979,0.203L478.014,345.388z M479.637,337.555l-0.979-0.203l0.811-3.916l0.979,0.203L479.637,337.555z
			 M481.26,329.722l-0.979-0.203l0.811-3.917l0.979,0.203L481.26,329.722z M482.883,321.888l-0.979-0.203l0.811-3.917l0.979,0.203
			L482.883,321.888z M484.506,314.054l-0.979-0.203l0.811-3.916l0.979,0.203L484.506,314.054z M486.129,306.221l-0.979-0.203
			l0.811-3.917l0.98,0.203L486.129,306.221z M487.753,298.387l-0.979-0.203l0.812-3.917l0.979,0.203L487.753,298.387z
			 M489.376,290.554l-0.979-0.203l0.811-3.917l0.979,0.203L489.376,290.554z M490.999,282.72l-0.98-0.203l0.812-3.917l0.979,0.203
			L490.999,282.72z M492.622,274.886l-0.979-0.203l0.811-3.916l0.979,0.203L492.622,274.886z M494.245,267.053l-0.98-0.203
			l0.812-3.917l0.979,0.203L494.245,267.053z M495.868,259.219l-0.979-0.203l0.811-3.917l0.98,0.203L495.868,259.219z
			 M497.491,251.385l-0.979-0.203l0.811-3.916l0.979,0.203L497.491,251.385z M499.114,243.552l-0.98-0.203l0.812-3.917l0.979,0.203
			L499.114,243.552z"/>
		<path style="fill:#FFFFFF;" d="M536.356,281.52l-3.917-0.811l0.203-0.979l3.917,0.812L536.356,281.52z M528.522,279.897
			l-3.917-0.812l0.203-0.978l3.917,0.811L528.522,279.897z M520.688,278.274l-3.917-0.811l0.203-0.979l3.917,0.812L520.688,278.274z
			 M512.855,276.651l-3.917-0.812l0.203-0.978l3.916,0.811L512.855,276.651z M505.021,275.028l-3.917-0.811l0.203-0.979l3.917,0.812
			L505.021,275.028z M497.188,273.405l-3.917-0.811l0.203-0.978l3.917,0.811L497.188,273.405z M489.354,271.782l-3.917-0.811
			l0.203-0.979l3.917,0.811L489.354,271.782z M481.52,270.159l-3.917-0.812l0.203-0.979l3.917,0.812L481.52,270.159z
			 M473.687,268.536l-3.917-0.812l0.203-0.978l3.917,0.811L473.687,268.536z M465.853,266.913l-3.917-0.812l0.203-0.979l3.917,0.811
			L465.853,266.913z M458.019,265.29l-3.917-0.811l0.203-0.978l3.917,0.811L458.019,265.29z M450.186,263.666l-1.313-0.271
			l0.202-0.979l1.313,0.272L450.186,263.666z"/>
		<path style="fill:#FFFFFF;" d="M529.983,312.277l-3.917-0.811l0.203-0.978l3.917,0.811L529.983,312.277z M522.149,310.654
			l-3.917-0.812l0.203-0.978l3.917,0.812L522.149,310.654z M514.316,309.031l-3.917-0.811l0.203-0.979l3.917,0.812L514.316,309.031z
			 M506.482,307.408l-3.917-0.812l0.203-0.979l3.917,0.812L506.482,307.408z M498.648,305.785l-3.917-0.811l0.203-0.979l3.917,0.811
			L498.648,305.785z M490.815,304.162l-3.917-0.811l0.203-0.979l3.917,0.812L490.815,304.162z M482.981,302.539l-3.917-0.812
			l0.203-0.978l3.917,0.811L482.981,302.539z M475.148,300.916l-3.917-0.811l0.203-0.979l3.917,0.812L475.148,300.916z
			 M467.314,299.293l-3.917-0.811l0.203-0.978l3.917,0.811L467.314,299.293z M459.481,297.67l-3.917-0.811l0.203-0.979l3.917,0.812
			L459.481,297.67z M451.647,296.047l-3.917-0.811l0.203-0.978l3.917,0.811L451.647,296.047z M443.814,294.423l-1.313-0.271
			l0.202-0.979l1.313,0.272L443.814,294.423z"/>
		<path style="fill:#FFFFFF;" d="M523.732,342.448l-3.917-0.811l0.203-0.978l3.917,0.811L523.732,342.448z M515.898,340.825
			l-3.917-0.812l0.203-0.978l3.917,0.812L515.898,340.825z M508.065,339.202l-3.917-0.811l0.203-0.979l3.917,0.812L508.065,339.202z
			 M500.231,337.579l-3.917-0.812l0.203-0.979l3.917,0.812L500.231,337.579z M492.398,335.956l-3.917-0.811l0.203-0.979l3.917,0.811
			L492.398,335.956z M484.564,334.333l-3.917-0.811l0.203-0.979l3.917,0.812L484.564,334.333z M476.73,332.71l-3.917-0.812
			l0.203-0.978l3.917,0.811L476.73,332.71z M468.897,331.087l-3.917-0.811l0.203-0.979l3.917,0.812L468.897,331.087z
			 M461.063,329.464l-3.917-0.812l0.203-0.978l3.917,0.811L461.063,329.464z M453.23,327.841l-3.917-0.811l0.203-0.979l3.917,0.812
			L453.23,327.841z M445.396,326.218l-3.917-0.811l0.203-0.978l3.917,0.811L445.396,326.218z M437.563,324.594l-1.313-0.271
			l0.202-0.979l1.313,0.272L437.563,324.594z"/>
		<path style="fill:#FFFFFF;" d="M517.511,372.473l-3.917-0.811l0.203-0.979l3.917,0.811L517.511,372.473z M509.677,370.849
			l-3.917-0.811l0.203-0.979l3.917,0.812L509.677,370.849z M501.843,369.226l-3.917-0.812l0.203-0.978l3.917,0.811L501.843,369.226z
			 M494.01,367.603l-3.916-0.811l0.203-0.979l3.917,0.812L494.01,367.603z M486.176,365.98l-3.917-0.811l0.203-0.978l3.917,0.811
			L486.176,365.98z M478.343,364.357l-3.917-0.811l0.203-0.979l3.917,0.812L478.343,364.357z M470.509,362.734l-3.917-0.811
			l0.203-0.978l3.917,0.811L470.509,362.734z M462.675,361.111l-3.917-0.811l0.203-0.979l3.917,0.811L462.675,361.111z
			 M454.842,359.488l-3.917-0.812l0.203-0.979l3.917,0.812L454.842,359.488z M447.008,357.865l-3.917-0.812l0.203-0.978l3.917,0.811
			L447.008,357.865z M439.174,356.242l-3.917-0.812l0.203-0.979l3.917,0.811L439.174,356.242z M431.341,354.618l-1.313-0.271
			l0.202-0.979l1.313,0.271L431.341,354.618z"/>
		<g>
			
				<rect x="511.493" y="260.311" transform="matrix(0.203 -0.9792 0.9792 0.203 155.8809 713.1404)" style="fill:#F4E9CE;" width="9.074" height="1"/>
			
				<rect x="505.131" y="291.019" transform="matrix(0.2031 -0.9792 0.9792 0.2031 120.6987 731.3456)" style="fill:#F4E9CE;" width="9.075" height="1"/>
			
				<rect x="498.917" y="321.01" transform="matrix(0.2031 -0.9792 0.9792 0.2031 86.4147 749.1925)" style="fill:#F4E9CE;" width="9.074" height="1"/>
			
				<rect x="492.62" y="351.4" transform="matrix(0.203 -0.9792 0.9792 0.203 51.6474 767.2556)" style="fill:#F4E9CE;" width="9.074" height="1"/>
			
				<rect x="486.387" y="381.486" transform="matrix(0.203 -0.9792 0.9792 0.203 17.22 785.1293)" style="fill:#F4E9CE;" width="9.073" height="1"/>
		</g>
		<g>
			
				<rect x="471.217" y="251.965" transform="matrix(0.203 -0.9792 0.9792 0.203 131.9532 667.0519)" style="fill:#F4E9CE;" width="9.074" height="1"/>
			
				<rect x="464.855" y="282.674" transform="matrix(0.2031 -0.9792 0.9792 0.2031 96.8058 685.2876)" style="fill:#F4E9CE;" width="9.073" height="1"/>
			
				<rect x="458.641" y="312.665" transform="matrix(0.2031 -0.9792 0.9792 0.2031 62.457 703.0735)" style="fill:#F4E9CE;" width="9.073" height="1"/>
			
				<rect x="452.343" y="343.055" transform="matrix(0.203 -0.9792 0.9792 0.203 27.7196 721.167)" style="fill:#F4E9CE;" width="9.074" height="1"/>
			
				<rect x="446.11" y="373.141" transform="matrix(0.203 -0.9792 0.9792 0.203 -6.7076 739.041)" style="fill:#F4E9CE;" width="9.074" height="1"/>
		</g>
	</g>
	<g>
		<g>
			<path style="fill:#A74602;" d="M464.901,291.141c6.724-4.686,15.9-3.546,21.271,2.644l42.089,48.594v69.988l-0.492-0.416
				c-8.713-7.378-16.163-16.129-22.058-25.907l-45.092-74.805C456.533,304.458,458.405,295.668,464.901,291.141z"/>
			<path style="fill:#FEC200;" d="M472.726,317.787c-0.39,0-0.783-0.034-1.175-0.104c-1.736-0.31-3.248-1.277-4.256-2.725
				l-2.962-4.251c-3.715-5.331-2.4-12.689,2.93-16.405h0.001c5.332-3.714,12.691-2.399,16.405,2.931l3.006,4.314
				c0.997,1.431,1.377,3.163,1.07,4.88c-0.307,1.716-1.263,3.21-2.694,4.206l-8.564,5.968
				C475.367,317.381,474.063,317.787,472.726,317.787z M467.835,295.122L467.835,295.122c-4.879,3.4-6.082,10.135-2.682,15.013
				l2.962,4.251c0.855,1.229,2.138,2.05,3.611,2.313c1.475,0.264,2.961-0.063,4.189-0.919l8.565-5.968
				c1.211-0.844,2.021-2.108,2.281-3.563c0.259-1.453-0.063-2.92-0.906-4.131l-3.006-4.313
				C479.449,292.926,472.713,291.722,467.835,295.122z"/>
			
				<rect x="485.711" y="331.679" transform="matrix(0.8262 -0.5634 0.5634 0.8262 -101.4745 335.4363)" style="fill:#FEC200;" width="14.391" height="1"/>
			
				<rect x="490.942" y="334.565" transform="matrix(0.8261 -0.5635 0.5635 0.8261 -102.6891 337.3205)" style="fill:#FEC200;" width="8.663" height="1"/>
			
				<rect x="486.606" y="328.224" transform="matrix(0.8261 -0.5635 0.5635 0.8261 -99.8703 333.7753)" style="fill:#FEC200;" width="8.662" height="1"/>
		</g>
	</g>
	<g>
		
			<rect x="176.156" y="192.861" transform="matrix(0.3256 0.9455 -0.9455 0.3256 438.6935 -102.3135)" style="fill:#A1DBC9;" width="229.825" height="127.015"/>
		
			<ellipse transform="matrix(0.9455 -0.3256 0.3256 0.9455 -67.6139 108.7455)" style="fill:#FFFFFF;" cx="291.069" cy="256.368" rx="35.629" ry="28.717"/>
		<path style="fill:#FFFFFF;" d="M307.907,322.519l-5.754-16.708c-0.983-2.854,0.534-5.965,3.389-6.948l0.287-0.099
			c2.854-0.983,5.965,0.534,6.948,3.389l5.754,16.709c0.983,2.854-0.534,5.965-3.389,6.948l-0.287,0.099
			C312.001,326.891,308.89,325.373,307.907,322.519z"/>
		<path style="fill:#FFFFFF;" d="M269.36,210.585l-5.754-16.708c-0.983-2.854,0.534-5.965,3.389-6.948l0.287-0.099
			c2.855-0.983,5.965,0.534,6.948,3.389l5.754,16.708c0.983,2.855-0.534,5.965-3.389,6.948l-0.287,0.099
			C273.454,214.956,270.343,213.439,269.36,210.585z"/>
		<path style="fill:#FFFFFF;" d="M292.389,367.134l-0.22-0.281c-5.873-7.543-15.033-12.011-24.415-11.845l-0.362,0.005
			l-55.717-161.794l0.288-0.22c7.497-5.697,11.962-14.807,11.946-24.365l0-0.357l65.841-22.674l0.22,0.281
			c5.791,7.438,14.748,11.848,24.024,11.848c0.131,0,0.261-0.001,0.392-0.003l0.362-0.005l55.717,161.794l-0.288,0.22
			c-7.497,5.697-11.962,14.807-11.946,24.366l0.001,0.357L292.389,367.134z M268.142,354.005c9.466,0,18.608,4.441,24.594,11.952
			l64.494-22.21c0.092-9.617,4.574-18.758,12.052-24.585l-55.247-160.431c-0.014,0-0.028,0-0.042,0
			c-9.465,0-18.606-4.441-24.592-11.951l-64.494,22.21c-0.092,9.616-4.574,18.757-12.052,24.584l55.248,160.431
			C268.116,354.005,268.129,354.005,268.142,354.005z"/>
	</g>
	<g>
		<path style="fill:#9AC8DB;" d="M246.95,433.776l-57.97-235.724c-1.252-5.091,1.86-10.232,6.951-11.484l104.942-25.808
			c5.091-1.252,10.232,1.86,11.484,6.951l57.97,235.724c1.252,5.091-1.86,10.232-6.951,11.484l-104.942,25.808
			C253.343,441.978,248.202,438.866,246.95,433.776z"/>
		
			<rect x="160.203" y="262.288" transform="matrix(0.2388 0.9711 -0.9711 0.2388 510.8746 -55.8609)" style="fill:#FFFFFF;" width="261.731" height="71.296"/>
		<g>
			
				<rect x="354.256" y="349.969" transform="matrix(0.971 -0.2393 0.2393 0.971 -73.5211 95.2986)" style="fill:#682E2B;" width="3" height="1"/>
			<path style="fill:#682E2B;" d="M242.466,378.845l-0.238-0.971l5.598-1.376l0.238,0.971L242.466,378.845z M253.662,376.092
				l-0.239-0.971l5.598-1.377l0.239,0.971L253.662,376.092z M264.858,373.339l-0.239-0.971l5.598-1.377l0.239,0.971L264.858,373.339
				z M276.052,370.585l-0.238-0.971l5.598-1.376l0.238,0.971L276.052,370.585z M287.248,367.832l-0.239-0.971l5.598-1.377
				l0.239,0.971L287.248,367.832z M298.443,365.079l-0.239-0.971l5.598-1.377l0.239,0.971L298.443,365.079z M309.638,362.325
				l-0.238-0.971l5.598-1.376l0.238,0.971L309.638,362.325z M320.833,359.572l-0.238-0.971l5.598-1.376l0.238,0.971L320.833,359.572
				z M332.029,356.819l-0.239-0.971l5.598-1.377l0.239,0.971L332.029,356.819z M343.224,354.066l-0.239-0.971l5.598-1.377
				l0.239,0.971L343.224,354.066z"/>
			
				<rect x="233.793" y="379.594" transform="matrix(0.9709 -0.2394 0.2394 0.9709 -84.1385 67.3678)" style="fill:#682E2B;" width="3" height="1"/>
		</g>
		<path style="fill:#682E2B;" d="M243.064,202.782l0.854,3.47l23.845,10.487l2.056,8.361c0.857,3.453,2.607,5.169,4.69,5.747
			l0.116-0.029c1.577-1.479,2.332-3.81,1.49-7.267l-2.056-8.361l16.261-20.35l-0.853-3.47l-18.529,10.846l-2.333-9.488l4.18-5.547
			l-0.799-3.251l-5.467,3.72c-0.707-0.697-2-1.267-2.892-1.059c-0.892,0.208-1.652,1.306-1.954,2.251l-6.569-0.76l0.799,3.251
			l6.275,2.975l2.333,9.488L243.064,202.782z"/>
		<path style="fill:#F9E8E8;" d="M292.034,265.22l-5.706-23.204c-0.4-1.627,0.595-3.271,2.222-3.672l8.811-2.167
			c1.628-0.4,3.271,0.595,3.672,2.222l5.707,23.204c0.4,1.628-0.595,3.271-2.222,3.672l-8.811,2.167
			C294.078,267.842,292.434,266.847,292.034,265.22z"/>
		<path style="fill:#F9E8E8;" d="M302.566,308.049l-5.876-23.894c-0.353-1.437,0.525-2.889,1.962-3.242l9.5-2.336
			c1.437-0.353,2.889,0.525,3.242,1.962l5.876,23.894c0.353,1.437-0.525,2.889-1.962,3.242l-9.5,2.336
			C304.371,310.364,302.92,309.486,302.566,308.049z"/>
		<path style="fill:#F9E8E8;" d="M289.165,349.491l-25.21-102.513c-0.331-1.347,0.492-2.707,1.839-3.039l0,0
			c1.347-0.331,2.707,0.492,3.039,1.839l25.21,102.513c0.331,1.347-0.492,2.707-1.839,3.039l0,0
			C290.857,351.662,289.496,350.838,289.165,349.491z"/>
		<path style="fill:#F9E8E8;" d="M273.563,333.544l-20.622-83.856c-0.331-1.347,0.492-2.707,1.839-3.039l0,0
			c1.347-0.331,2.707,0.492,3.039,1.839l20.622,83.856c0.331,1.347-0.492,2.707-1.839,3.039l0,0
			C275.254,335.714,273.894,334.891,273.563,333.544z"/>
		<g>
			<path style="fill:#F9E8E8;" d="M339.188,410.648l-10.311-41.926c-0.262-1.067,0.39-2.144,1.456-2.406l0,0
				c1.067-0.262,2.144,0.39,2.406,1.456l10.311,41.926c0.262,1.067-0.39,2.144-1.456,2.406l0,0
				C340.528,412.366,339.451,411.714,339.188,410.648z"/>
			<path style="fill:#F9E8E8;" d="M311.292,417.508l-10.311-41.926c-0.262-1.067,0.39-2.144,1.457-2.406l0,0
				c1.067-0.262,2.144,0.39,2.406,1.457l10.311,41.926c0.262,1.067-0.39,2.144-1.456,2.406l0,0
				C312.632,419.227,311.554,418.575,311.292,417.508z"/>
			<path style="fill:#F9E8E8;" d="M317.697,415.255l-9.996-40.647c-0.349-1.42,0.519-2.854,1.939-3.203l1.703-0.419
				c1.42-0.349,2.854,0.519,3.203,1.939l9.996,40.647c0.349,1.42-0.519,2.854-1.939,3.203l-1.703,0.419
				C319.48,417.543,318.046,416.675,317.697,415.255z"/>
			<path style="fill:#F9E8E8;" d="M295.185,421.469l-10.31-41.926c-0.262-1.067,0.39-2.144,1.456-2.406l0,0
				c1.067-0.262,2.144,0.39,2.407,1.456l10.31,41.926c0.262,1.067-0.39,2.144-1.457,2.406l0,0
				C296.525,423.188,295.448,422.536,295.185,421.469z"/>
			<path style="fill:#F9E8E8;" d="M301.591,419.216l-9.996-40.647c-0.349-1.42,0.519-2.854,1.939-3.203l1.703-0.419
				c1.42-0.349,2.854,0.519,3.203,1.939l9.996,40.647c0.349,1.42-0.519,2.854-1.939,3.203l-1.703,0.419
				C303.374,421.504,301.94,420.636,301.591,419.216z"/>
			<path style="fill:#F9E8E8;" d="M327.377,413.461l-10.268-41.754c-0.274-1.114,0.407-2.239,1.521-2.513l5.057-1.244
				c1.114-0.274,2.239,0.407,2.513,1.521l10.268,41.754c0.274,1.114-0.407,2.239-1.521,2.513l-5.057,1.244
				C328.776,415.257,327.651,414.576,327.377,413.461z"/>
		</g>
		
			<rect x="286.539" y="424.018" transform="matrix(0.971 -0.2393 0.2393 0.971 -92.2134 89.4177)" style="fill:#F9E8E8;" width="71.296" height="1"/>
	</g>
	<g>
		<g>
			<path style="fill:#A74602;" d="M285.284,291.141c-6.724-4.686-15.9-3.546-21.271,2.644l-42.089,48.594v69.988l0.492-0.416
				c8.713-7.378,16.163-16.129,22.058-25.907l45.092-74.805C293.652,304.458,291.781,295.668,285.284,291.141z"/>
			<path style="fill:#FEC200;" d="M277.46,317.787c-1.337,0-2.641-0.406-3.762-1.188l-8.563-5.968
				c-1.431-0.996-2.387-2.49-2.694-4.206c-0.307-1.717,0.074-3.449,1.07-4.88l3.006-4.314c3.714-5.331,11.074-6.646,16.405-2.931
				l0,0c2.583,1.8,4.31,4.497,4.863,7.596c0.554,3.099-0.132,6.228-1.932,8.81l-2.962,4.251c-1.008,1.447-2.52,2.415-4.256,2.725
				C278.243,317.753,277.85,317.787,277.46,317.787z M276.2,293.189c-3.411,0-6.769,1.61-8.863,4.615l-3.006,4.313
				c-0.844,1.211-1.165,2.678-0.906,4.131c0.26,1.454,1.07,2.719,2.281,3.563l8.564,5.968c1.228,0.856,2.716,1.183,4.189,0.919
				c1.473-0.263,2.756-1.084,3.612-2.313l2.962-4.251c1.647-2.362,2.275-5.226,1.768-8.062c-0.506-2.835-2.087-5.304-4.45-6.951
				C280.476,293.816,278.328,293.189,276.2,293.189z"/>
			
				<rect x="256.779" y="324.983" transform="matrix(0.5635 -0.8261 0.8261 0.5635 -162.1159 357.5375)" style="fill:#FEC200;" width="1" height="14.391"/>
			
				<rect x="254.413" y="330.733" transform="matrix(0.5635 -0.8261 0.8261 0.5635 -165.5339 356.8259)" style="fill:#FEC200;" width="1" height="8.663"/>
			
				<rect x="258.748" y="324.393" transform="matrix(0.5635 -0.8261 0.8261 0.5635 -158.4017 357.6732)" style="fill:#FEC200;" width="1" height="8.662"/>
		</g>
	</g>
</g>
<g id="TEXT">
	<text transform="matrix(1 0 0 1 319.5797 86.5237)"><tspan x="0" y="0" style="fill:#682E2B; font-family:'Poppins-Bold'; font-size:24.8684px;">medical</tspan><tspan x="-16.835" y="29.842" style="fill:#682E2B; font-family:'Poppins-Bold'; font-size:24.8684px;">insurance</tspan></text>
</g>
</svg>
